<svg width="298" height="320" viewBox="0 0 298 320" fill="none" xmlns="http://www.w3.org/2000/svg">
<path d="M458.209 -411.784C490.482 -443.214 539.905 -448.892 578.465 -425.601L697.722 -353.568C712.785 -344.469 730.001 -339.551 747.596 -339.318L886.908 -337.473C931.953 -336.876 970.915 -305.945 981.712 -262.209L1015.1 -126.946C1019.32 -109.862 1028.02 -94.2104 1040.29 -81.6035L1137.5 18.2091C1168.93 50.4821 1174.61 99.9046 1151.32 138.465L1079.28 257.722C1070.18 272.785 1065.26 290.001 1065.03 307.597L1063.19 446.908C1062.59 491.953 1031.66 530.915 987.924 541.712L852.661 575.104C835.576 579.322 819.925 588.017 807.318 600.294L707.505 697.498C675.232 728.928 625.81 734.606 587.249 711.315L467.992 639.282C452.929 630.184 435.714 625.265 418.118 625.032L278.806 623.187C233.762 622.591 194.799 591.659 184.002 547.924L150.61 412.661C146.392 395.576 137.697 379.925 125.42 367.318L28.2159 267.505C-3.21353 235.232 -8.89196 185.81 14.399 147.25L86.4324 27.992C95.5306 12.9292 100.449 -4.28645 100.682 -21.8822L102.527 -161.194C103.124 -206.238 134.055 -245.201 177.791 -255.998L313.054 -289.39C330.138 -293.608 345.79 -302.303 358.396 -314.58L458.209 -411.784Z" fill="url(#paint0_radial_2_161)"/>
<defs>
<radialGradient id="paint0_radial_2_161" cx="0" cy="0" r="1" gradientUnits="userSpaceOnUse" gradientTransform="translate(582.857 142.857) rotate(83.4456) scale(612)">
<stop stop-color="white"/>
<stop offset="1" stop-color="white" stop-opacity="0"/>
</radialGradient>
</defs>
</svg>
