<svg width="527" height="320" viewBox="0 0 527 320" fill="none" xmlns="http://www.w3.org/2000/svg">
<path d="M364.408 -98.8336C407.75 -86.551 437.334 -46.5562 436.394 -1.51773L433.485 137.776C433.118 155.369 437.446 172.743 446.026 188.107L513.949 309.753C535.911 349.085 528.55 398.285 496.038 429.467L395.486 525.906C382.785 538.086 373.561 553.432 368.763 570.363L330.776 704.408C318.494 747.749 278.499 777.334 233.46 776.394L94.1668 773.485C76.5734 773.118 59.1999 777.446 43.8354 786.025L-77.8098 853.949C-117.142 875.911 -166.342 868.55 -197.524 836.038L-293.963 735.486C-306.144 722.785 -321.489 713.561 -338.42 708.763L-472.465 670.776C-515.807 658.494 -545.391 618.499 -544.451 573.46L-541.542 434.167C-541.175 416.573 -545.504 399.2 -554.083 383.835L-622.006 262.19C-643.968 222.858 -636.607 173.658 -604.095 142.476L-503.543 46.0371C-490.843 33.8564 -481.619 18.5106 -476.821 1.58006L-438.834 -132.465C-426.551 -175.807 -386.556 -205.391 -341.518 -204.451L-202.224 -201.542C-184.631 -201.175 -167.257 -205.504 -151.893 -214.083L-30.2474 -282.006C9.08476 -303.968 58.2848 -296.607 89.4669 -264.095L185.906 -163.543C198.086 -150.843 213.432 -141.619 230.363 -136.821L364.408 -98.8336Z" fill="url(#paint0_radial_2_178)"/>
<defs>
<radialGradient id="paint0_radial_2_178" cx="0" cy="0" r="1" gradientUnits="userSpaceOnUse" gradientTransform="translate(-54.0286 285.971) rotate(143.509) scale(612)">
<stop stop-color="white"/>
<stop offset="1" stop-color="white" stop-opacity="0"/>
</radialGradient>
</defs>
</svg>
