<svg width="498" height="320" viewBox="0 0 498 320" fill="none" xmlns="http://www.w3.org/2000/svg">
<path d="M335.408 -256.834C378.75 -244.551 408.334 -204.556 407.394 -159.518L404.485 -20.2241C404.118 -2.63066 408.446 14.7428 417.026 30.1072L484.949 151.753C506.911 191.085 499.55 240.285 467.038 271.467L366.486 367.906C353.785 380.086 344.561 395.432 339.763 412.363L301.776 546.408C289.494 589.749 249.499 619.334 204.46 618.394L65.1668 615.485C47.5734 615.118 30.1999 619.446 14.8354 628.025L-106.81 695.949C-146.142 717.911 -195.342 710.55 -226.524 678.038L-322.963 577.486C-335.144 564.785 -350.489 555.561 -367.42 550.763L-501.465 512.776C-544.807 500.494 -574.391 460.499 -573.451 415.46L-570.542 276.167C-570.175 258.573 -574.504 241.2 -583.083 225.835L-651.006 104.19C-672.968 64.8579 -665.607 15.6579 -633.095 -15.5241L-532.543 -111.963C-519.843 -124.144 -510.619 -139.489 -505.821 -156.42L-467.834 -290.465C-455.551 -333.807 -415.556 -363.391 -370.518 -362.451L-231.224 -359.542C-213.631 -359.175 -196.257 -363.504 -180.893 -372.083L-59.2474 -440.006C-19.9152 -461.968 29.2848 -454.607 60.4669 -422.095L156.906 -321.543C169.086 -308.843 184.432 -299.619 201.363 -294.821L335.408 -256.834Z" fill="url(#paint0_radial_2_177)"/>
<defs>
<radialGradient id="paint0_radial_2_177" cx="0" cy="0" r="1" gradientUnits="userSpaceOnUse" gradientTransform="translate(-83.0286 127.971) rotate(143.509) scale(612)">
<stop stop-color="white"/>
<stop offset="1" stop-color="white" stop-opacity="0"/>
</radialGradient>
</defs>
</svg>
