<svg width="538" height="320" viewBox="0 0 538 320" fill="none" xmlns="http://www.w3.org/2000/svg">
<path d="M216.408 -419.834C259.75 -407.551 289.334 -367.556 288.394 -322.518L285.485 -183.224C285.118 -165.631 289.446 -148.257 298.026 -132.893L365.949 -11.2474C387.911 28.0848 380.55 77.2849 348.038 108.467L247.486 204.906C234.785 217.086 225.561 232.432 220.763 249.363L182.776 383.408C170.494 426.749 130.499 456.334 85.4604 455.394L-53.8332 452.485C-71.4266 452.118 -88.8001 456.446 -104.165 465.025L-225.81 532.949C-265.142 554.911 -314.342 547.55 -345.524 515.038L-441.963 414.486C-454.144 401.785 -469.489 392.561 -486.42 387.763L-620.465 349.776C-663.807 337.494 -693.391 297.499 -692.451 252.46L-689.542 113.167C-689.175 95.5733 -693.504 78.1999 -702.083 62.8354L-770.006 -58.8098C-791.968 -98.1421 -784.607 -147.342 -752.095 -178.524L-651.543 -274.963C-638.843 -287.144 -629.619 -302.489 -624.821 -319.42L-586.834 -453.465C-574.551 -496.807 -534.556 -526.391 -489.518 -525.451L-350.224 -522.542C-332.631 -522.175 -315.257 -526.504 -299.893 -535.083L-178.247 -603.006C-138.915 -624.968 -89.7152 -617.607 -58.5331 -585.095L37.9056 -484.543C50.0863 -471.843 65.4321 -462.619 82.3627 -457.821L216.408 -419.834Z" fill="url(#paint0_radial_2_171)"/>
<defs>
<radialGradient id="paint0_radial_2_171" cx="0" cy="0" r="1" gradientUnits="userSpaceOnUse" gradientTransform="translate(-202.029 -35.0286) rotate(143.509) scale(612)">
<stop stop-color="white"/>
<stop offset="1" stop-color="white" stop-opacity="0"/>
</radialGradient>
</defs>
</svg>
