<svg width="1080" height="320" viewBox="0 0 1080 320" fill="none" xmlns="http://www.w3.org/2000/svg">
<g clip-path="url(#clip0_2_159)">
<rect width="1260" height="320" transform="translate(-180)" fill="#101012"/>
<g clip-path="url(#clip1_2_159)">
<path d="M1240.21 -411.784C1272.48 -443.214 1321.9 -448.892 1360.46 -425.601L1479.72 -353.568C1494.79 -344.469 1512 -339.551 1529.6 -339.318L1668.91 -337.473C1713.95 -336.876 1752.92 -305.945 1763.71 -262.209L1797.1 -126.946C1801.32 -109.862 1810.02 -94.2104 1822.29 -81.6035L1919.5 18.2091C1950.93 50.4821 1956.61 99.9046 1933.32 138.465L1861.28 257.722C1852.18 272.785 1847.26 290.001 1847.03 307.597L1845.19 446.908C1844.59 491.953 1813.66 530.915 1769.92 541.712L1634.66 575.104C1617.58 579.322 1601.92 588.017 1589.32 600.294L1489.51 697.498C1457.23 728.928 1407.81 734.606 1369.25 711.315L1249.99 639.282C1234.93 630.184 1217.71 625.265 1200.12 625.032L1060.81 623.187C1015.76 622.591 976.799 591.659 966.002 547.924L932.61 412.661C928.392 395.576 919.697 379.925 907.42 367.318L810.216 267.505C778.786 235.232 773.108 185.81 796.399 147.25L868.432 27.992C877.531 12.9292 882.449 -4.28645 882.682 -21.8822L884.527 -161.194C885.124 -206.238 916.055 -245.201 959.791 -255.998L1095.05 -289.39C1112.14 -293.608 1127.79 -302.303 1140.4 -314.58L1240.21 -411.784Z" fill="url(#paint0_radial_2_159)"/>
<path d="M1035.21 -443.784C1067.48 -475.214 1116.9 -480.892 1155.46 -457.601L1274.72 -385.568C1289.79 -376.469 1307 -371.551 1324.6 -371.318L1463.91 -369.473C1508.95 -368.876 1547.92 -337.945 1558.71 -294.209L1592.1 -158.946C1596.32 -141.862 1605.02 -126.21 1617.29 -113.604L1714.5 -13.7909C1745.93 18.4821 1751.61 67.9046 1728.32 106.465L1656.28 225.722C1647.18 240.785 1642.26 258.001 1642.03 275.597L1640.19 414.908C1639.59 459.953 1608.66 498.915 1564.92 509.712L1429.66 543.104C1412.58 547.322 1396.92 556.017 1384.32 568.294L1284.51 665.498C1252.23 696.928 1202.81 702.606 1164.25 679.315L1044.99 607.282C1029.93 598.184 1012.71 593.265 995.118 593.032L855.806 591.187C810.762 590.591 771.799 559.659 761.002 515.924L727.61 380.661C723.392 363.576 714.697 347.925 702.42 335.318L605.216 235.505C573.786 203.232 568.108 153.81 591.399 115.25L663.432 -4.00797C672.531 -19.0708 677.449 -36.2864 677.682 -53.8822L679.527 -193.194C680.124 -238.238 711.055 -277.201 754.791 -287.998L890.054 -321.39C907.138 -325.608 922.79 -334.303 935.396 -346.58L1035.21 -443.784Z" fill="url(#paint1_radial_2_159)"/>
<path d="M1008.21 -636.784C1040.48 -668.214 1089.9 -673.892 1128.46 -650.601L1247.72 -578.568C1262.79 -569.469 1280 -564.551 1297.6 -564.318L1436.91 -562.473C1481.95 -561.876 1520.92 -530.945 1531.71 -487.209L1565.1 -351.946C1569.32 -334.862 1578.02 -319.21 1590.29 -306.604L1687.5 -206.791C1718.93 -174.518 1724.61 -125.095 1701.32 -86.5352L1629.28 32.7222C1620.18 47.7851 1615.26 65.0007 1615.03 82.5966L1613.19 221.908C1612.59 266.953 1581.66 305.915 1537.92 316.712L1402.66 350.104C1385.58 354.322 1369.92 363.017 1357.32 375.294L1257.51 472.498C1225.23 503.928 1175.81 509.606 1137.25 486.315L1017.99 414.282C1002.93 405.184 985.714 400.265 968.118 400.032L828.806 398.187C783.762 397.591 744.799 366.659 734.002 322.924L700.61 187.661C696.392 170.576 687.697 154.925 675.42 142.318L578.216 42.5051C546.786 10.2321 541.108 -39.1903 564.399 -77.7505L636.432 -197.008C645.531 -212.071 650.449 -229.286 650.682 -246.882L652.527 -386.194C653.124 -431.238 684.055 -470.201 727.791 -480.998L863.054 -514.39C880.138 -518.608 895.79 -527.303 908.396 -539.58L1008.21 -636.784Z" fill="url(#paint2_radial_2_159)"/>
</g>
<path d="M364.408 -98.8336C407.75 -86.551 437.334 -46.5562 436.394 -1.51773L433.485 137.776C433.118 155.369 437.446 172.743 446.026 188.107L513.949 309.753C535.911 349.085 528.55 398.285 496.038 429.467L395.486 525.906C382.785 538.086 373.561 553.432 368.763 570.363L330.776 704.408C318.494 747.749 278.499 777.334 233.46 776.394L94.1668 773.485C76.5734 773.118 59.1999 777.446 43.8354 786.025L-77.8098 853.949C-117.142 875.911 -166.342 868.55 -197.524 836.038L-293.963 735.486C-306.144 722.785 -321.489 713.561 -338.42 708.763L-472.465 670.776C-515.807 658.494 -545.391 618.499 -544.451 573.46L-541.542 434.167C-541.175 416.573 -545.504 399.2 -554.083 383.835L-622.006 262.19C-643.968 222.858 -636.607 173.658 -604.095 142.476L-503.543 46.0371C-490.843 33.8564 -481.619 18.5106 -476.821 1.58006L-438.834 -132.465C-426.551 -175.807 -386.556 -205.391 -341.518 -204.451L-202.224 -201.542C-184.631 -201.175 -167.257 -205.504 -151.893 -214.083L-30.2474 -282.006C9.08476 -303.968 58.2848 -296.607 89.4669 -264.095L185.906 -163.543C198.086 -150.843 213.432 -141.619 230.363 -136.821L364.408 -98.8336Z" fill="url(#paint3_radial_2_159)"/>
<path d="M335.408 -256.834C378.75 -244.551 408.334 -204.556 407.394 -159.518L404.485 -20.2241C404.118 -2.63066 408.446 14.7428 417.026 30.1072L484.949 151.753C506.911 191.085 499.55 240.285 467.038 271.467L366.486 367.906C353.785 380.086 344.561 395.432 339.763 412.363L301.776 546.408C289.494 589.749 249.499 619.334 204.46 618.394L65.1668 615.485C47.5734 615.118 30.1999 619.446 14.8354 628.025L-106.81 695.949C-146.142 717.911 -195.342 710.55 -226.524 678.038L-322.963 577.486C-335.144 564.785 -350.489 555.561 -367.42 550.763L-501.465 512.776C-544.807 500.494 -574.391 460.499 -573.451 415.46L-570.542 276.167C-570.175 258.573 -574.504 241.2 -583.083 225.835L-651.006 104.19C-672.968 64.8579 -665.607 15.6579 -633.095 -15.5241L-532.543 -111.963C-519.843 -124.144 -510.619 -139.489 -505.821 -156.42L-467.834 -290.465C-455.551 -333.807 -415.556 -363.391 -370.518 -362.451L-231.224 -359.542C-213.631 -359.175 -196.257 -363.504 -180.893 -372.083L-59.2474 -440.006C-19.9152 -461.968 29.2848 -454.607 60.4669 -422.095L156.906 -321.543C169.086 -308.843 184.432 -299.619 201.363 -294.821L335.408 -256.834Z" fill="url(#paint4_radial_2_159)"/>
<path d="M275.408 -2.83355C318.75 9.44902 348.334 49.4438 347.394 94.4823L344.485 233.776C344.118 251.369 348.446 268.743 357.026 284.107L424.949 405.753C446.911 445.085 439.55 494.285 407.038 525.467L306.486 621.906C293.785 634.086 284.561 649.432 279.763 666.363L241.776 800.408C229.494 843.749 189.499 873.334 144.46 872.394L5.16682 869.485C-12.4266 869.118 -29.8001 873.446 -45.1646 882.025L-166.81 949.949C-206.142 971.911 -255.342 964.55 -286.524 932.038L-382.963 831.486C-395.144 818.785 -410.489 809.561 -427.42 804.763L-561.465 766.776C-604.807 754.494 -634.391 714.499 -633.451 669.46L-630.542 530.167C-630.175 512.573 -634.504 495.2 -643.083 479.835L-711.006 358.19C-732.968 318.858 -725.607 269.658 -693.095 238.476L-592.543 142.037C-579.843 129.856 -570.619 114.511 -565.821 97.5801L-527.834 -36.4653C-515.551 -79.8069 -475.556 -109.391 -430.518 -108.451L-291.224 -105.542C-273.631 -105.175 -256.257 -109.504 -240.893 -118.083L-119.247 -186.006C-79.9152 -207.968 -30.7152 -200.607 0.466859 -168.095L96.9056 -67.5429C109.086 -54.8427 124.432 -45.6187 141.363 -40.8207L275.408 -2.83355Z" fill="url(#paint5_radial_2_159)"/>
<path d="M216.408 -419.834C259.75 -407.551 289.334 -367.556 288.394 -322.518L285.485 -183.224C285.118 -165.631 289.446 -148.257 298.026 -132.893L365.949 -11.2474C387.911 28.0848 380.55 77.2849 348.038 108.467L247.486 204.906C234.785 217.086 225.561 232.432 220.763 249.363L182.776 383.408C170.494 426.749 130.499 456.334 85.4604 455.394L-53.8332 452.485C-71.4266 452.118 -88.8001 456.446 -104.165 465.025L-225.81 532.949C-265.142 554.911 -314.342 547.55 -345.524 515.038L-441.963 414.486C-454.144 401.785 -469.489 392.561 -486.42 387.763L-620.465 349.776C-663.807 337.494 -693.391 297.499 -692.451 252.46L-689.542 113.167C-689.175 95.5733 -693.504 78.1999 -702.083 62.8354L-770.006 -58.8098C-791.968 -98.1421 -784.607 -147.342 -752.095 -178.524L-651.543 -274.963C-638.843 -287.144 -629.619 -302.489 -624.821 -319.42L-586.834 -453.465C-574.551 -496.807 -534.556 -526.391 -489.518 -525.451L-350.224 -522.542C-332.631 -522.175 -315.257 -526.504 -299.893 -535.083L-178.247 -603.006C-138.915 -624.968 -89.7152 -617.607 -58.5331 -585.095L37.9056 -484.543C50.0863 -471.843 65.4321 -462.619 82.3627 -457.821L216.408 -419.834Z" fill="url(#paint6_radial_2_159)"/>
<path d="M93.408 -206.834C136.75 -194.551 166.334 -154.556 165.394 -109.518L162.485 29.7759C162.118 47.3693 166.446 64.7428 175.026 80.1072L242.949 201.753C264.911 241.085 257.55 290.285 225.038 321.467L124.486 417.906C111.785 430.086 102.561 445.432 97.7634 462.363L59.7763 596.408C47.4937 639.749 7.49895 669.334 -37.5396 668.394L-176.833 665.485C-194.427 665.118 -211.8 669.446 -227.165 678.025L-348.81 745.949C-388.142 767.911 -437.342 760.55 -468.524 728.038L-564.963 627.486C-577.144 614.785 -592.489 605.561 -609.42 600.763L-743.465 562.776C-786.807 550.494 -816.391 510.499 -815.451 465.46L-812.542 326.167C-812.175 308.573 -816.504 291.2 -825.083 275.835L-893.006 154.19C-914.968 114.858 -907.607 65.6579 -875.095 34.4759L-774.543 -61.9629C-761.843 -74.1436 -752.619 -89.4894 -747.821 -106.42L-709.834 -240.465C-697.551 -283.807 -657.556 -313.391 -612.518 -312.451L-473.224 -309.542C-455.631 -309.175 -438.257 -313.504 -422.893 -322.083L-301.247 -390.006C-261.915 -411.968 -212.715 -404.607 -181.533 -372.095L-85.0944 -271.543C-72.9137 -258.843 -57.5679 -249.619 -40.6373 -244.821L93.408 -206.834Z" fill="url(#paint7_radial_2_159)"/>
</g>
<defs>
<radialGradient id="paint0_radial_2_159" cx="0" cy="0" r="1" gradientUnits="userSpaceOnUse" gradientTransform="translate(1364.86 142.857) rotate(83.4456) scale(612)">
<stop stop-color="white"/>
<stop offset="1" stop-color="white" stop-opacity="0"/>
</radialGradient>
<radialGradient id="paint1_radial_2_159" cx="0" cy="0" r="1" gradientUnits="userSpaceOnUse" gradientTransform="translate(1159.86 110.857) rotate(83.4456) scale(612)">
<stop stop-color="white"/>
<stop offset="1" stop-color="white" stop-opacity="0"/>
</radialGradient>
<radialGradient id="paint2_radial_2_159" cx="0" cy="0" r="1" gradientUnits="userSpaceOnUse" gradientTransform="translate(1132.86 -82.1429) rotate(83.4456) scale(612)">
<stop stop-color="white"/>
<stop offset="1" stop-color="white" stop-opacity="0"/>
</radialGradient>
<radialGradient id="paint3_radial_2_159" cx="0" cy="0" r="1" gradientUnits="userSpaceOnUse" gradientTransform="translate(-54.0286 285.971) rotate(143.509) scale(612)">
<stop stop-color="white"/>
<stop offset="1" stop-color="white" stop-opacity="0"/>
</radialGradient>
<radialGradient id="paint4_radial_2_159" cx="0" cy="0" r="1" gradientUnits="userSpaceOnUse" gradientTransform="translate(-83.0286 127.971) rotate(143.509) scale(612)">
<stop stop-color="white"/>
<stop offset="1" stop-color="white" stop-opacity="0"/>
</radialGradient>
<radialGradient id="paint5_radial_2_159" cx="0" cy="0" r="1" gradientUnits="userSpaceOnUse" gradientTransform="translate(-143.029 381.971) rotate(143.509) scale(612)">
<stop stop-color="white"/>
<stop offset="1" stop-color="white" stop-opacity="0"/>
</radialGradient>
<radialGradient id="paint6_radial_2_159" cx="0" cy="0" r="1" gradientUnits="userSpaceOnUse" gradientTransform="translate(-202.029 -35.0286) rotate(143.509) scale(612)">
<stop stop-color="white"/>
<stop offset="1" stop-color="white" stop-opacity="0"/>
</radialGradient>
<radialGradient id="paint7_radial_2_159" cx="0" cy="0" r="1" gradientUnits="userSpaceOnUse" gradientTransform="translate(-325.029 177.971) rotate(143.509) scale(612)">
<stop stop-color="white"/>
<stop offset="1" stop-color="white" stop-opacity="0"/>
</radialGradient>
<clipPath id="clip0_2_159">
<rect width="1080" height="320" fill="white"/>
</clipPath>
<clipPath id="clip1_2_159">
<rect width="530" height="320" fill="white" transform="translate(550)"/>
</clipPath>
</defs>
</svg>
