<svg width="438" height="320" viewBox="0 0 438 320" fill="none" xmlns="http://www.w3.org/2000/svg">
<path d="M275.408 -2.83355C318.75 9.44902 348.334 49.4438 347.394 94.4823L344.485 233.776C344.118 251.369 348.446 268.743 357.026 284.107L424.949 405.753C446.911 445.085 439.55 494.285 407.038 525.467L306.486 621.906C293.785 634.086 284.561 649.432 279.763 666.363L241.776 800.408C229.494 843.749 189.499 873.334 144.46 872.394L5.16682 869.485C-12.4266 869.118 -29.8001 873.446 -45.1646 882.025L-166.81 949.949C-206.142 971.911 -255.342 964.55 -286.524 932.038L-382.963 831.486C-395.144 818.785 -410.489 809.561 -427.42 804.763L-561.465 766.776C-604.807 754.494 -634.391 714.499 -633.451 669.46L-630.542 530.167C-630.175 512.573 -634.504 495.2 -643.083 479.835L-711.006 358.19C-732.968 318.858 -725.607 269.658 -693.095 238.476L-592.543 142.037C-579.843 129.856 -570.619 114.511 -565.821 97.5801L-527.834 -36.4653C-515.551 -79.8069 -475.556 -109.391 -430.518 -108.451L-291.224 -105.542C-273.631 -105.175 -256.257 -109.504 -240.893 -118.083L-119.247 -186.006C-79.9152 -207.968 -30.7152 -200.607 0.466859 -168.095L96.9056 -67.5429C109.086 -54.8427 124.432 -45.6187 141.363 -40.8207L275.408 -2.83355Z" fill="url(#paint0_radial_2_172)"/>
<defs>
<radialGradient id="paint0_radial_2_172" cx="0" cy="0" r="1" gradientUnits="userSpaceOnUse" gradientTransform="translate(-143.029 381.971) rotate(143.509) scale(612)">
<stop stop-color="white"/>
<stop offset="1" stop-color="white" stop-opacity="0"/>
</radialGradient>
</defs>
</svg>
