<svg width="538" height="320" viewBox="0 0 538 320" fill="none" xmlns="http://www.w3.org/2000/svg">
<path d="M93.408 -206.834C136.75 -194.551 166.334 -154.556 165.394 -109.518L162.485 29.7759C162.118 47.3693 166.446 64.7428 175.026 80.1072L242.949 201.753C264.911 241.085 257.55 290.285 225.038 321.467L124.486 417.906C111.785 430.086 102.561 445.432 97.7634 462.363L59.7763 596.408C47.4937 639.749 7.49895 669.334 -37.5396 668.394L-176.833 665.485C-194.427 665.118 -211.8 669.446 -227.165 678.025L-348.81 745.949C-388.142 767.911 -437.342 760.55 -468.524 728.038L-564.963 627.486C-577.144 614.785 -592.489 605.561 -609.42 600.763L-743.465 562.776C-786.807 550.494 -816.391 510.499 -815.451 465.46L-812.542 326.167C-812.175 308.573 -816.504 291.2 -825.083 275.835L-893.006 154.19C-914.968 114.858 -907.607 65.6579 -875.095 34.4759L-774.543 -61.9629C-761.843 -74.1436 -752.619 -89.4894 -747.821 -106.42L-709.834 -240.465C-697.551 -283.807 -657.556 -313.391 -612.518 -312.451L-473.224 -309.542C-455.631 -309.175 -438.257 -313.504 -422.893 -322.083L-301.247 -390.006C-261.915 -411.968 -212.715 -404.607 -181.533 -372.095L-85.0944 -271.543C-72.9137 -258.843 -57.5679 -249.619 -40.6373 -244.821L93.408 -206.834Z" fill="url(#paint0_radial_2_171)"/>
<defs>
<radialGradient id="paint0_radial_2_171" cx="0" cy="0" r="1" gradientUnits="userSpaceOnUse" gradientTransform="translate(-325.029 177.971) rotate(143.509) scale(612)">
<stop stop-color="white"/>
<stop offset="1" stop-color="white" stop-opacity="0"/>
</radialGradient>
</defs>
</svg>
