<svg width="530" height="320" viewBox="0 0 530 320" fill="none" xmlns="http://www.w3.org/2000/svg">
<path d="M458.209 -636.784C490.482 -668.214 539.905 -673.892 578.465 -650.601L697.722 -578.568C712.785 -569.469 730.001 -564.551 747.596 -564.318L886.908 -562.473C931.953 -561.876 970.915 -530.945 981.712 -487.209L1015.1 -351.946C1019.32 -334.862 1028.02 -319.21 1040.29 -306.604L1137.5 -206.791C1168.93 -174.518 1174.61 -125.095 1151.32 -86.5352L1079.28 32.7222C1070.18 47.7851 1065.26 65.0007 1065.03 82.5966L1063.19 221.908C1062.59 266.953 1031.66 305.915 987.924 316.712L852.661 350.104C835.576 354.322 819.925 363.017 807.318 375.294L707.505 472.498C675.232 503.928 625.81 509.606 587.249 486.315L467.992 414.282C452.929 405.184 435.714 400.265 418.118 400.032L278.806 398.187C233.762 397.591 194.799 366.659 184.002 322.924L150.61 187.661C146.392 170.576 137.697 154.925 125.42 142.318L28.2159 42.5051C-3.21353 10.2321 -8.89196 -39.1903 14.399 -77.7505L86.4324 -197.008C95.5306 -212.071 100.449 -229.286 100.682 -246.882L102.527 -386.194C103.124 -431.238 134.055 -470.201 177.791 -480.998L313.054 -514.39C330.138 -518.608 345.79 -527.303 358.396 -539.58L458.209 -636.784Z" fill="url(#paint0_radial_2_163)"/>
<defs>
<radialGradient id="paint0_radial_2_163" cx="0" cy="0" r="1" gradientUnits="userSpaceOnUse" gradientTransform="translate(582.857 -82.1429) rotate(83.4456) scale(612)">
<stop stop-color="white"/>
<stop offset="1" stop-color="white" stop-opacity="0"/>
</radialGradient>
</defs>
</svg>
