<svg width="503" height="320" viewBox="0 0 503 320" fill="none" xmlns="http://www.w3.org/2000/svg">
<path d="M458.209 -443.784C490.482 -475.214 539.905 -480.892 578.465 -457.601L697.722 -385.568C712.785 -376.469 730.001 -371.551 747.596 -371.318L886.908 -369.473C931.953 -368.876 970.915 -337.945 981.712 -294.209L1015.1 -158.946C1019.32 -141.862 1028.02 -126.21 1040.29 -113.604L1137.5 -13.7909C1168.93 18.4821 1174.61 67.9046 1151.32 106.465L1079.28 225.722C1070.18 240.785 1065.26 258.001 1065.03 275.597L1063.19 414.908C1062.59 459.953 1031.66 498.915 987.924 509.712L852.661 543.104C835.576 547.322 819.925 556.017 807.318 568.294L707.505 665.498C675.232 696.928 625.81 702.606 587.249 679.315L467.992 607.282C452.929 598.184 435.714 593.265 418.118 593.032L278.806 591.187C233.762 590.591 194.799 559.659 184.002 515.924L150.61 380.661C146.392 363.576 137.697 347.925 125.42 335.318L28.2159 235.505C-3.21353 203.232 -8.89196 153.81 14.399 115.25L86.4324 -4.00797C95.5306 -19.0708 100.449 -36.2864 100.682 -53.8822L102.527 -193.194C103.124 -238.238 134.055 -277.201 177.791 -287.998L313.054 -321.39C330.138 -325.608 345.79 -334.303 358.396 -346.58L458.209 -443.784Z" fill="url(#paint0_radial_2_162)"/>
<defs>
<radialGradient id="paint0_radial_2_162" cx="0" cy="0" r="1" gradientUnits="userSpaceOnUse" gradientTransform="translate(582.857 110.857) rotate(83.4456) scale(612)">
<stop stop-color="white"/>
<stop offset="1" stop-color="white" stop-opacity="0"/>
</radialGradient>
</defs>
</svg>
